<svg width="495" height="53" viewBox="0 0 495 53" fill="none" xmlns="http://www.w3.org/2000/svg">
<g clip-path="url(#clip0_736_224)">
<path d="M119.891 3.82428H103.112V49.3524H119.891V3.82428Z" fill="#17130F"/>
<path d="M284.591 3.82428V40.8397L253.867 6.60823C251.686 4.19112 247.596 3.82931 245.354 3.82931H228.711V49.3574H243.952V12.3369L274.184 46.0006C276.093 48.0458 279.415 49.3524 282.812 49.3524H299.837V3.82428H284.596H284.591Z" fill="#17130F"/>
<path d="M174.62 42.5081C161.695 42.5081 151.182 35.3674 151.182 26.5834C151.182 17.7993 161.7 10.6586 174.62 10.6586C187.54 10.6586 198.057 17.8044 198.057 26.5834C198.057 35.3623 187.545 42.5081 174.62 42.5081ZM174.514 0.698669C153.122 0.698669 135.72 12.3119 135.72 26.5884C135.72 40.8649 153.122 52.4781 174.514 52.4781C195.907 52.4781 213.309 40.8649 213.309 26.5884C213.309 12.3119 195.907 0.698669 174.514 0.698669Z" fill="#17130F"/>
<path d="M50.6839 2.05042C48.0558 2.05042 46.0005 3.8243 44.7542 4.87456C43.8899 5.60824 0 49.3524 0 49.3524H17.9449L50.0106 17.6435L67.6841 39.8347H39.2969L29.7641 49.3524H92.3929C92.3929 49.3524 56.9604 5.58814 56.287 4.87456C55.5382 4.08561 53.4578 2.05042 50.6839 2.05042Z" fill="#17130F"/>
<path d="M406.597 48.87C406.547 49.1062 406.336 49.2821 406.095 49.2821H347.139C345.194 49.2821 343.757 48.6891 342.868 47.5283C341.953 46.3323 341.767 44.7092 342.31 42.7142L351.903 9.40729C352.893 5.86957 355.546 3.82935 359.185 3.82935H418.733L416.678 13.5229C416.627 13.7591 416.416 13.93 416.175 13.93H366.275L364.154 21.3119H409.497C409.823 21.3119 410.07 21.6134 409.999 21.9351L408.15 30.7442C408.1 30.9804 407.889 31.1512 407.647 31.1512H361.35L359.044 39.1161H408.019C408.346 39.1161 408.592 39.4176 408.522 39.7393L406.607 48.875L406.597 48.87Z" fill="#17130F"/>
<path d="M494.985 4.95996C495.066 4.568 494.769 4.20116 494.372 4.19614L438.784 3.64337C433.914 3.59814 430.537 7.80924 429.145 11.4324C427.653 15.3018 427.633 20.1109 432.045 22.0204L433.643 22.7742C443.955 27.2265 469.739 36.4326 470 36.5281C470.432 36.6839 470.779 36.9502 471.025 37.2769C471.121 37.4779 471.181 37.699 471.181 37.9402C471.181 38.7945 470.503 39.4829 469.658 39.5181L421.015 38.9854C420.713 38.9854 420.452 39.1915 420.386 39.488L418.512 48.4277C418.432 48.8197 418.718 49.1865 419.115 49.1916C425.879 49.2569 475.352 49.7242 475.422 49.7242L477.749 49.7494C482.076 49.7242 484.87 47.8398 487.367 43.2468C489.181 39.9101 489.794 36.7794 489.051 34.6487C488.598 33.3572 487.674 32.4326 486.226 31.8246L485.04 31.2869C479.588 28.9954 447.306 17.2264 447.306 17.2264C446.809 17.0355 446.422 16.6435 446.191 16.1661C446.09 15.9551 446.025 15.7239 446.025 15.4777C446.025 14.6234 446.703 13.9349 447.548 13.8998L492.478 14.4023C492.779 14.4023 493.041 14.1962 493.106 13.8998L494.985 4.95996Z" fill="#12100B"/>
</g>
<defs>
<clipPath id="clip0_736_224">
<rect width="495" height="51.7794" fill="white" transform="translate(0 0.6987)"/>
</clipPath>
</defs>
</svg>
